# AST/ASF file generated using VICON BodyLanguage
# -----------------------------------------------
:version 1.10
:name VICON
:units
  mass 1.0
  length 0.45
  angle deg
:documentation
   .ast/.asf automatically generated from VICON data using
   VICON BodyBuilder and BodyLanguage model FoxedUp or BRILLIANT.MOD
:root
   order TX TY TZ RX RY RZ
   axis XYZ
   position 0 0 0  
   orientation 0 0 0 
:bonedata
  begin
     id 1 
     name lhipjoint
     direction 0.650112 -0.723553 0.232005 
     length 2.45805 
     axis 0 0 0  XYZ
  end
  begin
     id 2 
     name lfemur
     direction 0.34202 -0.939693 0  
     length 7.00073  
     axis 0 0 20  XYZ
    dof rx ry rz
    limits (-160.0 20.0)
           (-70.0 70.0)
           (-60.0 70.0)
  end
  begin
     id 3 
     name ltibia
     direction 0.34202 -0.939693 0   
     length 7.8748   
     axis 0 0 20   XYZ
    dof rx
    limits (-10.0 170.0)
  end
  begin
     id 4 
     name lfoot
     direction 0.0542825 -0.14914 0.987325   
     length 1.75978   
     axis -90 7.62852e-016 20   XYZ
    dof rx rz
    limits (-45.0 90.0)
           (-70.0 20.0)
  end
  begin
     id 5 
     name ltoes
     direction 1.53509e-011 -4.21906e-011 1   
     length 0.893912   
     axis -90 7.62852e-016 20   XYZ
    dof rx
    limits (-90.0 20.0)
  end
  begin
     id 6 
     name rhipjoint
     direction -0.637897 -0.733345 0.235145   
     length 2.42522  
     axis 0 0 0  XYZ 
  end
  begin
     id 7 
     name rfemur
     direction -0.34202 -0.939693 0   
     length 7.02549   
     axis 0 0 -20   XYZ
    dof rx ry rz
    limits (-160.0 20.0)
           (-70.0 70.0)
           (-70.0 60.0)
  end
  begin
     id 8 
     name rtibia
     direction -0.34202 -0.939693 0   
     length 7.71512   
     axis 0 0 -20   XYZ
    dof rx
    limits (-10.0 170.0)
 end
 begin
     id 9 
     name rfoot
     direction -0.0822618 -0.226012 0.970645   
     length 1.90014  
     axis -90 -7.62852e-016 -20   XYZ
    dof rx rz
    limits (-45.0 90.0)
           (-20.0 70.0)
  end
  begin
     id 10 
     name rtoes
     direction -1.53542e-011 -4.21872e-011 1   
     length 0.957341   
     axis -90 -7.62852e-016 -20   XYZ
    dof rx
    limits (-90.0 20.0)
  end
  begin
     id 11 
     name lowerback
     direction -0.0022947 0.999774 -0.0211557   
     length 1.89909   
     axis 0 0 0   XYZ
    dof rx ry rz
    limits (-20.0 45.0)
           (-30.0 30.0)
           (-30.0 30.0)
  end
  begin
     id 12 
     name upperback
     direction 0.0107737 0.998635 0.0511027   
     length 1.8853   
     axis 0 0 0   XYZ
    dof rx ry rz
    limits (-20.0 45.0)
           (-30.0 30.0)
           (-30.0 30.0)
  end
  begin
     id 13 
     name thorax
     direction 0.011824 0.998136 0.0598754   
     length 1.88911   
     axis 0 0 0   XYZ
    dof rx ry rz
    limits (-20.0 45.0)
           (-30.0 30.0)
           (-30.0 30.0)
  end
  begin
     id 14 
     name lowerneck
     direction -0.0685355 0.990319 0.120714   
     length 1.91222   
     axis 0 0 0   XYZ
    dof rx ry rz
    limits (-20.0 45.0)
           (-30.0 30.0)
           (-30.0 30.0)
  end
  begin
     id 15 
     name upperneck
     direction 0.0886204 0.955665 -0.280805   
     length 1.92526   
     axis 0 0 0   XYZ
    dof rx ry rz
    limits (-20.0 45.0)
           (-30.0 30.0)
           (-30.0 30.0)
  end
  begin
     id 16
     name head
     direction 0.0233423 0.993502 -0.111393  
     length 1.96056  
     axis 0 0 0   XYZ
    dof rx ry rz
    limits (-20.0 45.0)
           (-30.0 30.0)
           (-30.0 30.0)
  end
  begin
     id 17 
     name lclavicle
     direction 0.941873 0.32922 0.0670041  
     length 3.31705  
     axis 0 0 0   XYZ
    dof ry rz
    limits (-20.0 10.0)
           (0.0 20.0)
  end
  begin
     id 18 
     name lhumerus
     direction 1 -4.4898e-011 3.38707e-028   
     length 5.29277   
     axis 180 -30 -90   XYZ
    dof rx ry rz
    limits (-60.0 90.0)
           (-90.0 90.0)
           (-90.0 90.0)
  end
  begin
     id 19
     name lradius
     direction 1 -4.48952e-011 1.63213e-028   
     length 2.85226   
     axis 180 -30 -90   XYZ
    dof rx
    limits (-10.0 170.0)
  end
  begin
     id 20
     name lwrist
     direction 1 -4.49001e-011 1.27856e-027   
     length 1.42613   
     axis -1.61767e-015 90 90   XYZ
    dof ry
    limits (-180.0 0.0)
 end
  begin
     id 21 
     name lhand
     direction 1 -4.48976e-011 2.55931e-027   
     length 0.602097   
     axis -1.63363e-015 90 90   XYZ
    dof rx rz
    limits (-90.0 90.0)
           (-45.0 45.0)
  end
  begin
     id 22 
     name lfingers
     direction 1 -4.48986e-011 5.11684e-027   
     length 0.485426   
     axis -3.26723e-015 90 90   XYZ
    dof rx
    limits (0.0 90.0)
  end
  begin
     id 23
     name lthumb
     direction 0.707107 -6.34915e-011 0.707107   
     length 0.696978   
     axis -90 45 -2.25915e-014   XYZ
    dof rx rz
    limits (-45.0 45.0)
           (-45.0 45.0)
  end
  begin
     id 24 
     name rclavicle
     direction -0.939974 0.327078 0.0973096   
     length 3.10337  
     axis 0 0 0   XYZ 
    dof ry rz
    limits (-10.0 20.0)
           (-20.0 0.0)
  end
  begin
     id 25 
     name rhumerus
     direction -1 -4.48975e-011 1.83745e-027  
     length 5.13304   
     axis 180 30 90   XYZ
    dof rx ry rz
    limits (-90.0 60.0)
           (-90.0 90.0)
           (-90.0 90.0)
  end
  begin
     id 26 
     name rradius
     direction -1 -4.48977e-011 7.1775e-029   
     length 2.74305   
     axis 180 30 90   XYZ
    dof rx
    limits (-10.0 170.0)
  end
  begin
     id 27 
     name rwrist
     direction -1 -4.48977e-011 1.27963e-027   
     length 1.37152   
     axis -1.61767e-015 -90 -90   XYZ
    dof ry
    limits (-180.0 0.0)
  end
  begin
     id 28
     name rhand
     direction -1 -4.4888e-011 2.56782e-027   
     length 0.767976   
     axis -1.63363e-015 -90 -90   XYZ
    dof rx rz
    limits (-90.0 90.0)
           (-45.0 45.0)
  end
  begin
     id 29
     name rfingers
     direction -1 -4.48947e-011 5.12384e-027   
     length 0.619162   
     axis -3.26723e-015 -90 -90   XYZ
    dof rx
    limits (0.0 90.0)
  end
  begin
     id 30
     name rthumb
     direction -0.707107 -6.34857e-011 0.707107   
     length 0.888997   
     axis -90 -45 2.25915e-014   XYZ
    dof rx rz
    limits (-45.0 45.0)
           (-45.0 45.0)
  end
:hierarchy
  begin
    root lhipjoint rhipjoint lowerback
    lhipjoint lfemur
    lfemur ltibia
    ltibia lfoot
    lfoot ltoes
    rhipjoint rfemur
    rfemur rtibia
    rtibia rfoot
    rfoot rtoes
    lowerback upperback
    upperback thorax
    thorax lowerneck lclavicle rclavicle
    lowerneck upperneck
    upperneck head
    lclavicle lhumerus
    lhumerus lradius
    lradius lwrist
    lwrist lhand lthumb
    lhand lfingers
    rclavicle rhumerus
    rhumerus rradius
    rradius rwrist
    rwrist rhand rthumb
    rhand rfingers
  end

#!OML:ASF F:\VICON\USERDATA\INSTALL\rory3\rory3.ASF
:FULLY-SPECIFIED
:DEGREES
227
root -0.0501391 17.2379 -0.777515 17.1257 9.14843 -3.32151
lowerback 6.70799 1.00106 -2.56225
upperback -7.6816 1.03767 -0.172571
thorax -12.1196 0.722212 1.07028
lowerneck -11.2117 -6.20887 -17.1812
upperneck 6.5691 -8.35044 24.6531
head 5.76043 -3.26691 10.3153
rclavicle -2.08724e-015 -1.19271e-014
rhumerus -26.4618 -9.33823 -84.7737
rradius 100.769
rwrist 31.1652
rhand 27.5092 4.14492
rfingers 7.12502
rthumb 51.4543 -16.2794
lclavicle -2.08724e-015 -1.19271e-014
lhumerus 8.79552 -43.8413 91.1979
lradius 92.4484
lwrist -11.6672
lhand 29.8511 35.8987
lfingers 7.12502
lthumb 53.5731 55.0214
rfemur -25.5909 4.73882 21.4227
rtibia 23.4988
rfoot -14.4628 -11.6583
rtoes -18.8274
lfemur -33.1884 -12.8593 -8.78538
ltibia 30.9577
lfoot -15.6458 4.36353
ltoes -21.1679
228
root -0.032585 17.2371 -0.787831 17.2043 8.49277 -3.23239
lowerback 6.67144 0.920137 -2.44125
upperback -7.71198 0.955797 -0.0483035
thorax -12.1278 0.679162 1.15184
lowerneck -10.5653 -6.93666 -17.5974
upperneck 5.92935 -9.34295 24.9529
head 5.72393 -3.80693 10.3713
rclavicle -3.78685e-014 -3.97569e-015
rhumerus -25.4063 -9.70816 -85.1483
rradius 100.33
rwrist 31.9782
rhand 27.4103 4.59919
rfingers 7.12502
rthumb 51.3644 -15.8766
lclavicle -3.78685e-014 -3.97569e-015
lhumerus 7.95124 -43.2247 91.5349
lradius 92.3552
lwrist -10.5717
lhand 30.0272 35.7513
lfingers 7.12502
lthumb 53.7314 54.7694
rfemur -25.8245 5.07862 21.1101
rtibia 23.6023
rfoot -14.3995 -11.4372
rtoes -19.1197
lfemur -33.1131 -12.6053 -9.06236
ltibia 30.9714
lfoot -15.6847 4.65142
ltoes -21.0044
229
root -0.0132942 17.237 -0.796847 17.3099 7.80945 -3.08967
lowerback 6.60732 0.752489 -2.33639
upperback -7.72632 0.752837 0.0608252
thorax -12.0953 0.577857 1.24718
lowerneck -10.2205 -7.69083 -17.9727
upperneck 5.49912 -10.3783 25.2406
head 5.81841 -4.34295 10.4061
rclavicle 3.97569e-016 -1.94809e-014
rhumerus -23.7864 -9.95397 -85.8601
rradius 99.9714
rwrist 33.0283
rhand 28.2616 4.89115
rfingers 7.12502
rthumb 52.1374 -15.1325
lclavicle 3.97569e-016 -1.94809e-014
lhumerus 7.0405 -42.24 91.7301
lradius 92.4092
lwrist -9.57579
lhand 30.2876 35.7939
lfingers 7.12502
lthumb 53.9654 54.6554
rfemur -26.0806 5.38814 20.7352
rtibia 23.6935
rfoot -14.3558 -11.1438
rtoes -19.0074
lfemur -33.0412 -12.3957 -9.3876
ltibia 30.9474
lfoot -15.6624 5.07518
ltoes -21.5693
230
root 0.00878379 17.2393 -0.801409 17.2239 7.06629 -2.98057
lowerback 6.71788 0.559291 -2.20805
upperback -7.72229 0.520755 0.240074
thorax -12.1486 0.464817 1.4091
lowerneck -9.78811 -8.40739 -18.5762
upperneck 5.20699 -11.3857 25.6386
head 5.96152 -4.86898 10.5284
rclavicle -5.56597e-015 -1.98785e-015
rhumerus -22.5247 -9.43665 -86.4732
rradius 99.7256
rwrist 33.9013
rhand 28.8931 5.07621
rfingers 7.12502
rthumb 52.7091 -14.5986
lclavicle -5.56597e-015 -1.98785e-015
lhumerus 5.97411 -40.966 91.9452
lradius 92.6782
lwrist -8.70528
lhand 30.5089 36.0629
lfingers 7.12502
lthumb 54.1639 54.7895
rfemur -26.0911 5.67605 20.4184
rtibia 23.7749
rfoot -14.3138 -10.8566
rtoes -19.0388
lfemur -32.7072 -12.1819 -9.75279
ltibia 30.9008
lfoot -15.7531 5.45275
ltoes -21.4472
231
root 0.0313832 17.2415 -0.80739 17.1295 6.12217 -2.86072
lowerback 6.87657 0.379176 -2.21491
upperback -7.74743 0.298124 0.510055
thorax -12.2682 0.374692 1.74498
lowerneck -9.06711 -9.07262 -19.2153
upperneck 4.76059 -12.3196 25.8807
head 5.98738 -5.3902 10.6055
rclavicle -3.00662e-015 -4.37326e-015
rhumerus -21.6699 -8.23201 -87.05
rradius 99.3613
rwrist 34.1954
rhand 28.7627 4.87469
rfingers 7.12502
rthumb 52.5911 -14.8732
lclavicle -3.00662e-015 -4.37326e-015
lhumerus 4.75676 -39.2648 92.252
lradius 93.0013
lwrist -8.05198
lhand 30.6023 36.3555
lfingers 7.12502
lthumb 54.2476 55.0247
rfemur -26.0943 6.09995 20.0385
rtibia 23.7876
rfoot -14.2327 -10.5223
rtoes -19.3397
lfemur -32.314 -11.8295 -10.1861
ltibia 30.8431
lfoot -15.8812 5.82684
ltoes -21.1908
232
root 0.0539881 17.2442 -0.813212 17.1407 4.91403 -2.78052
lowerback 6.77897 0.250004 -2.27427
upperback -7.70952 0.146526 0.800076
thorax -12.1595 0.320984 2.12034
lowerneck -8.34149 -9.76367 -19.6683
upperneck 4.08682 -13.2558 25.9242
head 5.92134 -5.9207 10.5626
rclavicle 6.80837e-015 2.78299e-015
rhumerus -20.5299 -6.98415 -87.8029
rradius 98.8605
rwrist 34.2266
rhand 28.5336 4.51111
rfingers 7.12502
rthumb 52.3839 -15.3637
lclavicle 6.80837e-015 2.78299e-015
lhumerus 3.63143 -37.2823 92.4003
lradius 93.3932
lwrist -7.68745
lhand 30.7406 36.7222
lfingers 7.12502
lthumb 54.3715 55.3059
rfemur -26.2113 6.67426 19.6255
rtibia 23.694
rfoot -14.1457 -10.0146
rtoes -19.5371
lfemur -31.9874 -11.2996 -10.6117
ltibia 30.782
lfoot -15.9692 6.35283
ltoes -21.345
233
root 0.0804114 17.2517 -0.811027 17.0899 3.54285 -2.75512
lowerback 6.56787 0.162508 -2.1851
upperback -7.60741 0.0649371 1.0223
thorax -11.9078 0.28048 2.32419
lowerneck -7.74965 -10.4988 -19.9606
upperneck 3.52142 -14.2715 25.9167
head 5.91702 -6.47468 10.4531
rclavicle -1.58779e-014 -2.32578e-014
rhumerus -19.3793 -5.80808 -88.7114
rradius 98.503
rwrist 34.4153
rhand 28.4205 4.4582
rfingers 7.12502
rthumb 52.2815 -15.4788
lclavicle -1.58779e-014 -2.32578e-014
lhumerus 2.33012 -35.1186 92.4784
lradius 93.8356
lwrist -7.60177
lhand 30.779 36.9449
lfingers 7.12502
lthumb 54.4059 55.5047
rfemur -26.2187 7.19618 19.275
rtibia 23.5629
rfoot -14.0879 -9.36684
rtoes -20.411
lfemur -31.4852 -10.7445 -11.0371
ltibia 30.6886
lfoot -16.1276 6.93161
ltoes -21.1117
234
root 0.109081 17.2584 -0.806757 17.0518 2.13794 -2.7756
lowerback 6.46578 0.0816152 -1.87233
upperback -7.60494 0.00578213 1.14638
thorax -11.8366 0.229485 2.29235
lowerneck -7.05737 -11.263 -20.3219
upperneck 3.0849 -15.3946 26.1154
head 5.98966 -7.07884 10.417
rclavicle -6.4605e-016 -4.57205e-015
rhumerus -18.4925 -4.58494 -89.8097
rradius 98.2777
rwrist 34.6609
rhand 28.2931 4.22558
rfingers 7.12502
rthumb 52.166 -15.781
lclavicle -6.4605e-016 -4.57205e-015
lhumerus 0.718243 -32.8243 92.5119
lradius 94.3266
lwrist -7.86136
lhand 30.9366 37.0911
lfingers 7.12502
lthumb 54.547 55.5524
rfemur -26.252 7.75249 18.96
rtibia 23.4438
rfoot -14.0816 -8.73006
rtoes -21.2698
lfemur -30.9726 -10.1934 -11.4129
ltibia 30.5636
lfoot -16.2915 7.49479
ltoes -20.2118
235
root 0.135361 17.263 -0.805228 17.1043 0.668622 -2.66111
lowerback 6.4312 -0.0424104 -1.6782
upperback -7.66046 -0.136745 1.18986
thorax -11.87 0.146227 2.25452
lowerneck -6.40648 -12.0282 -20.6392
upperneck 2.71711 -16.5475 26.3985
head 6.10917 -7.68988 10.3909
rclavicle -3.19298e-015 7.55382e-015
rhumerus -17.5069 -3.1451 -91.1084
rradius 97.9533
rwrist 34.9
rhand 28.0263 3.98219
rfingers 7.12502
rthumb 51.9241 -16.1684
lclavicle -3.19298e-015 7.55382e-015
lhumerus -0.897181 -30.2857 92.2397
lradius 94.8564
lwrist -8.30528
lhand 31.0324 37.1771
lfingers 7.12502
lthumb 54.6326 55.5782
rfemur -26.4332 8.4121 18.4596
rtibia 23.3316
rfoot -14.0561 -8.13954
rtoes -21.2521
lfemur -30.5468 -9.61249 -11.9121
ltibia 30.3816
lfoot -16.4184 8.06339
ltoes -19.595
236
root 0.162451 17.2654 -0.806034 17.1942 -0.828898 -2.40324
lowerback 6.37873 -0.190678 -1.60898
upperback -7.66779 -0.332067 1.18848
thorax -11.8353 0.0444442 2.246
lowerneck -5.90519 -12.8288 -21.0643
upperneck 2.41167 -17.7565 26.8464
head 6.32631 -8.31322 10.4153
rclavicle 1.00635e-015 3.37934e-015
rhumerus -16.4354 -1.50123 -92.4544
rradius 97.6524
rwrist 35.126
rhand 27.7275 3.89041
rfingers 7.12502
rthumb 51.6527 -16.4193
lclavicle 1.00635e-015 3.37934e-015
lhumerus -2.38469 -27.5254 91.7518
lradius 95.4407
lwrist -8.98521
lhand 30.987 37.2888
lfingers 7.12502
lthumb 54.5921 55.7184
rfemur -26.7093 8.98596 17.7981
rtibia 23.2489
rfoot -14.0377 -7.45105
rtoes -21.0041
lfemur -30.1604 -9.04497 -12.5704
ltibia 30.1395
lfoot -16.428 8.76351
ltoes -20.2234
237
root 0.19323 17.2697 -0.805452 17.2469 -2.33743 -2.1776
lowerback 6.30672 -0.363569 -1.46127
upperback -7.59861 -0.548311 1.21524
thorax -11.7006 -0.0748376 2.2253
lowerneck -5.79871 -13.6798 -21.3637
upperneck 2.40548 -19.003 27.0007
head 6.66883 -8.92 10.268
rclavicle 5.76476e-015 2.18663e-014
rhumerus -15.3636 0.43305 -93.8066
rradius 97.341
rwrist 35.2475
rhand 27.4159 4.01854
rfingers 7.12502
rthumb 51.3694 -16.4543
lclavicle 5.76476e-015 2.18663e-014
lhumerus -3.85502 -24.5434 91.0949
lradius 96.0285
lwrist -9.70289
lhand 30.578 37.3898
lfingers 7.12502
lthumb 54.2259 56.0739
rfemur -26.9589 9.44151 17.1994
rtibia 23.1794
rfoot -14.0461 -6.70299
rtoes -21.7538
lfemur -29.7266 -8.53393 -13.1905
ltibia 29.8585
lfoot -16.6144 9.26346
ltoes -18.8962
238
root 0.225549 17.2768 -0.801843 17.2147 -3.84256 -1.9785
lowerback 6.31146 -0.561272 -1.25145
upperback -7.52508 -0.790759 1.25195
thorax -11.6084 -0.21082 2.18525
lowerneck -5.92114 -14.4917 -21.258
upperneck 2.57942 -20.1526 26.681
head 6.97105 -9.46 9.87669
rclavicle -1.50952e-014 -7.35503e-015
rhumerus -14.2256 2.56465 -95.1695
rradius 96.8722
rwrist 35.2204
rhand 27.1182 4.16157
rfingers 7.12502
rthumb 51.0985 -16.4647
lclavicle -1.50952e-014 -7.35503e-015
lhumerus -5.60075 -21.3533 90.3293
lradius 96.5017
lwrist -10.2556
lhand 29.7778 36.9731
lfingers 7.12502
lthumb 53.5071 56.139
rfemur -27.1001 9.93906 16.6323
rtibia 23.0743
rfoot -14.0077 -6.0246
rtoes -22.3889
lfemur -29.1996 -8.0044 -13.8078
ltibia 29.5828
lfoot -16.8194 9.67175
ltoes -17.5482
